<mxfile host="Electron" agent="Mozilla/5.0 (Macintosh; Intel Mac OS X 10_15_7) AppleWebKit/537.36 (KHTML, like Gecko) draw.io/24.7.17 Chrome/128.0.6613.36 Electron/32.0.1 Safari/537.36" version="24.7.17">
  <diagram name="Page-1" id="aXH7dpIs6Sqpf87ATUKA">
    <mxGraphModel dx="1257" dy="765" grid="1" gridSize="10" guides="1" tooltips="1" connect="1" arrows="1" fold="1" page="1" pageScale="1" pageWidth="1169" pageHeight="827" math="0" shadow="0">
      <root>
        <mxCell id="0" />
        <mxCell id="1" parent="0" />
        <mxCell id="HNm3cFTyr4UYgs1CFmEH-2" value="НБ ТГУ" style="swimlane;whiteSpace=wrap;html=1;" parent="1" vertex="1">
          <mxGeometry x="160" y="20" width="880" height="800" as="geometry" />
        </mxCell>
        <mxCell id="HNm3cFTyr4UYgs1CFmEH-9" value="Взять&lt;div&gt;книгу во временное пользование&lt;/div&gt;" style="ellipse;whiteSpace=wrap;html=1;" parent="HNm3cFTyr4UYgs1CFmEH-2" vertex="1">
          <mxGeometry x="120" y="90" width="120" height="80" as="geometry" />
        </mxCell>
        <mxCell id="HNm3cFTyr4UYgs1CFmEH-10" value="&lt;div&gt;Зарезервировать&lt;/div&gt;&lt;div&gt;место в&lt;/div&gt;&lt;div&gt;библиотеке&lt;/div&gt;" style="ellipse;whiteSpace=wrap;html=1;" parent="HNm3cFTyr4UYgs1CFmEH-2" vertex="1">
          <mxGeometry x="120" y="290" width="120" height="80" as="geometry" />
        </mxCell>
        <mxCell id="HNm3cFTyr4UYgs1CFmEH-11" value="Вернуть&lt;div&gt;книгу&lt;/div&gt;" style="ellipse;whiteSpace=wrap;html=1;" parent="HNm3cFTyr4UYgs1CFmEH-2" vertex="1">
          <mxGeometry x="290" y="30" width="120" height="80" as="geometry" />
        </mxCell>
        <mxCell id="HNm3cFTyr4UYgs1CFmEH-12" value="Зарезервировать&lt;div&gt;книгу&lt;/div&gt;" style="ellipse;whiteSpace=wrap;html=1;" parent="HNm3cFTyr4UYgs1CFmEH-2" vertex="1">
          <mxGeometry x="120" y="190" width="120" height="80" as="geometry" />
        </mxCell>
        <mxCell id="HNm3cFTyr4UYgs1CFmEH-13" value="Продлить&amp;nbsp;&lt;span style=&quot;background-color: initial;&quot;&gt;срок использования&lt;/span&gt;" style="ellipse;whiteSpace=wrap;html=1;" parent="HNm3cFTyr4UYgs1CFmEH-2" vertex="1">
          <mxGeometry x="290" y="120" width="120" height="80" as="geometry" />
        </mxCell>
        <mxCell id="HNm3cFTyr4UYgs1CFmEH-14" value="Получить консультацию" style="ellipse;whiteSpace=wrap;html=1;" parent="HNm3cFTyr4UYgs1CFmEH-2" vertex="1">
          <mxGeometry x="160" y="570" width="120" height="80" as="geometry" />
        </mxCell>
        <mxCell id="HNm3cFTyr4UYgs1CFmEH-21" value="Отменить бронь места" style="ellipse;whiteSpace=wrap;html=1;" parent="HNm3cFTyr4UYgs1CFmEH-2" vertex="1">
          <mxGeometry x="290" y="300" width="120" height="80" as="geometry" />
        </mxCell>
        <mxCell id="HNm3cFTyr4UYgs1CFmEH-22" value="Посмотреть доступные места&lt;div&gt;и время&lt;/div&gt;" style="ellipse;whiteSpace=wrap;html=1;" parent="HNm3cFTyr4UYgs1CFmEH-2" vertex="1">
          <mxGeometry x="290" y="390" width="120" height="80" as="geometry" />
        </mxCell>
        <mxCell id="HNm3cFTyr4UYgs1CFmEH-25" value="Посмотреть&lt;div&gt;каталог&lt;/div&gt;" style="ellipse;whiteSpace=wrap;html=1;" parent="HNm3cFTyr4UYgs1CFmEH-2" vertex="1">
          <mxGeometry x="150" y="660" width="120" height="80" as="geometry" />
        </mxCell>
        <mxCell id="HNm3cFTyr4UYgs1CFmEH-26" value="Отменить бронь книги" style="ellipse;whiteSpace=wrap;html=1;" parent="HNm3cFTyr4UYgs1CFmEH-2" vertex="1">
          <mxGeometry x="290" y="210" width="120" height="80" as="geometry" />
        </mxCell>
        <mxCell id="HNm3cFTyr4UYgs1CFmEH-37" value="&amp;lt;include&amp;gt;" style="html=1;verticalAlign=bottom;endArrow=open;dashed=1;endSize=8;curved=0;rounded=0;entryX=0;entryY=0.5;entryDx=0;entryDy=0;exitX=1;exitY=0;exitDx=0;exitDy=0;" parent="HNm3cFTyr4UYgs1CFmEH-2" source="HNm3cFTyr4UYgs1CFmEH-9" target="HNm3cFTyr4UYgs1CFmEH-11" edge="1">
          <mxGeometry x="-0.4404" y="3" relative="1" as="geometry">
            <mxPoint x="350" y="320" as="sourcePoint" />
            <mxPoint x="270" y="320" as="targetPoint" />
            <mxPoint as="offset" />
          </mxGeometry>
        </mxCell>
        <mxCell id="HNm3cFTyr4UYgs1CFmEH-38" value="&amp;lt;extend&amp;gt;" style="html=1;verticalAlign=bottom;endArrow=open;dashed=1;endSize=8;curved=0;rounded=0;exitX=0;exitY=0.5;exitDx=0;exitDy=0;entryX=1;entryY=0.5;entryDx=0;entryDy=0;" parent="HNm3cFTyr4UYgs1CFmEH-2" source="HNm3cFTyr4UYgs1CFmEH-13" target="HNm3cFTyr4UYgs1CFmEH-9" edge="1">
          <mxGeometry x="-0.1257" y="21" relative="1" as="geometry">
            <mxPoint x="350" y="320" as="sourcePoint" />
            <mxPoint x="270" y="320" as="targetPoint" />
            <mxPoint as="offset" />
          </mxGeometry>
        </mxCell>
        <mxCell id="HNm3cFTyr4UYgs1CFmEH-39" value="&amp;lt;extend&amp;gt;" style="html=1;verticalAlign=bottom;endArrow=open;dashed=1;endSize=8;curved=0;rounded=0;exitX=0;exitY=0.5;exitDx=0;exitDy=0;entryX=1;entryY=0.5;entryDx=0;entryDy=0;" parent="HNm3cFTyr4UYgs1CFmEH-2" source="HNm3cFTyr4UYgs1CFmEH-26" target="HNm3cFTyr4UYgs1CFmEH-12" edge="1">
          <mxGeometry x="-0.1724" y="-2" relative="1" as="geometry">
            <mxPoint x="270" y="360" as="sourcePoint" />
            <mxPoint x="232" y="358" as="targetPoint" />
            <mxPoint as="offset" />
          </mxGeometry>
        </mxCell>
        <mxCell id="HNm3cFTyr4UYgs1CFmEH-40" value="&amp;lt;extend&amp;gt;" style="html=1;verticalAlign=bottom;endArrow=open;dashed=1;endSize=8;curved=0;rounded=0;exitX=0;exitY=0.5;exitDx=0;exitDy=0;entryX=1;entryY=0.5;entryDx=0;entryDy=0;" parent="HNm3cFTyr4UYgs1CFmEH-2" source="HNm3cFTyr4UYgs1CFmEH-21" target="HNm3cFTyr4UYgs1CFmEH-10" edge="1">
          <mxGeometry x="-0.1538" y="-6" relative="1" as="geometry">
            <mxPoint x="270" y="450" as="sourcePoint" />
            <mxPoint x="250" y="430" as="targetPoint" />
            <mxPoint as="offset" />
          </mxGeometry>
        </mxCell>
        <mxCell id="HNm3cFTyr4UYgs1CFmEH-41" value="&amp;lt;extend&amp;gt;" style="html=1;verticalAlign=bottom;endArrow=open;dashed=1;endSize=8;curved=0;rounded=0;entryX=1;entryY=1;entryDx=0;entryDy=0;exitX=0;exitY=0;exitDx=0;exitDy=0;" parent="HNm3cFTyr4UYgs1CFmEH-2" source="HNm3cFTyr4UYgs1CFmEH-22" target="HNm3cFTyr4UYgs1CFmEH-10" edge="1">
          <mxGeometry x="-0.2256" y="-6" relative="1" as="geometry">
            <mxPoint x="260" y="620" as="sourcePoint" />
            <mxPoint x="250" y="530" as="targetPoint" />
            <mxPoint as="offset" />
          </mxGeometry>
        </mxCell>
        <mxCell id="HNm3cFTyr4UYgs1CFmEH-44" value="Выдать книгу&lt;div&gt;посетителю&lt;/div&gt;" style="ellipse;whiteSpace=wrap;html=1;" parent="HNm3cFTyr4UYgs1CFmEH-2" vertex="1">
          <mxGeometry x="500" y="40" width="120" height="80" as="geometry" />
        </mxCell>
        <mxCell id="HNm3cFTyr4UYgs1CFmEH-45" value="Принять книгу&lt;div&gt;от посетителя&lt;/div&gt;" style="ellipse;whiteSpace=wrap;html=1;" parent="HNm3cFTyr4UYgs1CFmEH-2" vertex="1">
          <mxGeometry x="460" y="150" width="120" height="80" as="geometry" />
        </mxCell>
        <mxCell id="HNm3cFTyr4UYgs1CFmEH-46" value="Добавить новый&lt;div&gt;материал в&lt;/div&gt;&lt;div&gt;каталог&lt;/div&gt;" style="ellipse;whiteSpace=wrap;html=1;" parent="HNm3cFTyr4UYgs1CFmEH-2" vertex="1">
          <mxGeometry x="640" y="250" width="120" height="80" as="geometry" />
        </mxCell>
        <mxCell id="HNm3cFTyr4UYgs1CFmEH-47" value="Консультация&lt;div&gt;посетителя&lt;/div&gt;" style="ellipse;whiteSpace=wrap;html=1;" parent="HNm3cFTyr4UYgs1CFmEH-2" vertex="1">
          <mxGeometry x="500" y="240" width="120" height="80" as="geometry" />
        </mxCell>
        <mxCell id="oBG0XvC71YKFU_uCO4MK-1" value="&lt;div&gt;Воспользоваться&lt;/div&gt;&lt;div&gt;местом&lt;/div&gt;" style="ellipse;whiteSpace=wrap;html=1;" parent="HNm3cFTyr4UYgs1CFmEH-2" vertex="1">
          <mxGeometry x="120" y="390" width="120" height="80" as="geometry" />
        </mxCell>
        <mxCell id="oBG0XvC71YKFU_uCO4MK-3" value="Записаться на&lt;div&gt;мероприятие&lt;/div&gt;" style="ellipse;whiteSpace=wrap;html=1;" parent="HNm3cFTyr4UYgs1CFmEH-2" vertex="1">
          <mxGeometry x="120" y="480" width="120" height="80" as="geometry" />
        </mxCell>
        <mxCell id="oBG0XvC71YKFU_uCO4MK-5" value="Посетить&lt;div&gt;мероприятие&lt;/div&gt;" style="ellipse;whiteSpace=wrap;html=1;" parent="HNm3cFTyr4UYgs1CFmEH-2" vertex="1">
          <mxGeometry x="290" y="490" width="120" height="80" as="geometry" />
        </mxCell>
        <mxCell id="oBG0XvC71YKFU_uCO4MK-6" value="&amp;lt;extend&amp;gt;" style="html=1;verticalAlign=bottom;endArrow=open;dashed=1;endSize=8;curved=0;rounded=0;entryX=1;entryY=0.5;entryDx=0;entryDy=0;exitX=0;exitY=0.5;exitDx=0;exitDy=0;" parent="HNm3cFTyr4UYgs1CFmEH-2" source="oBG0XvC71YKFU_uCO4MK-5" target="oBG0XvC71YKFU_uCO4MK-3" edge="1">
          <mxGeometry x="-0.1538" y="-6" relative="1" as="geometry">
            <mxPoint x="288" y="422" as="sourcePoint" />
            <mxPoint x="232" y="378" as="targetPoint" />
            <mxPoint as="offset" />
          </mxGeometry>
        </mxCell>
        <mxCell id="oBG0XvC71YKFU_uCO4MK-9" value="Наблюдение за&lt;div&gt;дисциплиной в&lt;/div&gt;&lt;div&gt;помещениях&lt;/div&gt;" style="ellipse;whiteSpace=wrap;html=1;" parent="HNm3cFTyr4UYgs1CFmEH-2" vertex="1">
          <mxGeometry x="640" y="354" width="120" height="80" as="geometry" />
        </mxCell>
        <mxCell id="oBG0XvC71YKFU_uCO4MK-13" value="Работа с посетителем" style="ellipse;whiteSpace=wrap;html=1;" parent="HNm3cFTyr4UYgs1CFmEH-2" vertex="1">
          <mxGeometry x="640" y="150" width="120" height="80" as="geometry" />
        </mxCell>
        <mxCell id="oBG0XvC71YKFU_uCO4MK-14" value="&amp;lt;extend&amp;gt;" style="html=1;verticalAlign=bottom;endArrow=open;dashed=1;endSize=8;curved=0;rounded=0;exitX=1;exitY=1;exitDx=0;exitDy=0;entryX=0;entryY=0;entryDx=0;entryDy=0;" parent="HNm3cFTyr4UYgs1CFmEH-2" source="HNm3cFTyr4UYgs1CFmEH-44" target="oBG0XvC71YKFU_uCO4MK-13" edge="1">
          <mxGeometry x="0.0024" relative="1" as="geometry">
            <mxPoint x="600" y="250" as="sourcePoint" />
            <mxPoint x="520" y="250" as="targetPoint" />
            <mxPoint as="offset" />
          </mxGeometry>
        </mxCell>
        <mxCell id="oBG0XvC71YKFU_uCO4MK-15" value="&amp;lt;extend&amp;gt;" style="html=1;verticalAlign=bottom;endArrow=open;dashed=1;endSize=8;curved=0;rounded=0;exitX=1;exitY=0.5;exitDx=0;exitDy=0;entryX=0;entryY=0.5;entryDx=0;entryDy=0;" parent="HNm3cFTyr4UYgs1CFmEH-2" source="HNm3cFTyr4UYgs1CFmEH-45" target="oBG0XvC71YKFU_uCO4MK-13" edge="1">
          <mxGeometry x="-0.1" y="9" relative="1" as="geometry">
            <mxPoint x="630" y="110" as="sourcePoint" />
            <mxPoint x="668" y="202" as="targetPoint" />
            <mxPoint as="offset" />
          </mxGeometry>
        </mxCell>
        <mxCell id="oBG0XvC71YKFU_uCO4MK-16" value="&amp;lt;extend&amp;gt;" style="html=1;verticalAlign=bottom;endArrow=open;dashed=1;endSize=8;curved=0;rounded=0;exitX=1;exitY=0;exitDx=0;exitDy=0;entryX=0;entryY=1;entryDx=0;entryDy=0;" parent="HNm3cFTyr4UYgs1CFmEH-2" source="HNm3cFTyr4UYgs1CFmEH-47" target="oBG0XvC71YKFU_uCO4MK-13" edge="1">
          <mxGeometry x="-0.2337" y="-8" relative="1" as="geometry">
            <mxPoint x="590" y="210" as="sourcePoint" />
            <mxPoint x="650" y="230" as="targetPoint" />
            <mxPoint as="offset" />
          </mxGeometry>
        </mxCell>
        <mxCell id="hvAa1C0GD8IXJ9aUV1Zo-1" value="Воспользоваться&lt;div&gt;электронными&lt;/div&gt;&lt;div&gt;ресурсами&lt;/div&gt;" style="ellipse;whiteSpace=wrap;html=1;" parent="HNm3cFTyr4UYgs1CFmEH-2" vertex="1">
          <mxGeometry x="30" y="700" width="120" height="80" as="geometry" />
        </mxCell>
        <mxCell id="hvAa1C0GD8IXJ9aUV1Zo-3" value="Работа с&lt;div&gt;электронными&lt;/div&gt;&lt;div&gt;ресурсами&lt;/div&gt;" style="ellipse;whiteSpace=wrap;html=1;" parent="HNm3cFTyr4UYgs1CFmEH-2" vertex="1">
          <mxGeometry x="640" y="450" width="120" height="80" as="geometry" />
        </mxCell>
        <mxCell id="hvAa1C0GD8IXJ9aUV1Zo-5" value="Актуализация" style="ellipse;whiteSpace=wrap;html=1;" parent="HNm3cFTyr4UYgs1CFmEH-2" vertex="1">
          <mxGeometry x="510" y="360" width="120" height="80" as="geometry" />
        </mxCell>
        <mxCell id="hvAa1C0GD8IXJ9aUV1Zo-7" value="Добавление" style="ellipse;whiteSpace=wrap;html=1;" parent="HNm3cFTyr4UYgs1CFmEH-2" vertex="1">
          <mxGeometry x="530" y="540" width="120" height="80" as="geometry" />
        </mxCell>
        <mxCell id="hvAa1C0GD8IXJ9aUV1Zo-6" value="Удаление" style="ellipse;whiteSpace=wrap;html=1;" parent="HNm3cFTyr4UYgs1CFmEH-2" vertex="1">
          <mxGeometry x="470" y="450" width="120" height="80" as="geometry" />
        </mxCell>
        <mxCell id="hvAa1C0GD8IXJ9aUV1Zo-12" value="" style="endArrow=block;endSize=16;endFill=0;html=1;rounded=0;exitX=1;exitY=0;exitDx=0;exitDy=0;entryX=0;entryY=1;entryDx=0;entryDy=0;" parent="HNm3cFTyr4UYgs1CFmEH-2" source="hvAa1C0GD8IXJ9aUV1Zo-7" target="hvAa1C0GD8IXJ9aUV1Zo-3" edge="1">
          <mxGeometry x="-0.5274" y="23" width="160" relative="1" as="geometry">
            <mxPoint x="600" y="500" as="sourcePoint" />
            <mxPoint x="650" y="500" as="targetPoint" />
            <mxPoint as="offset" />
          </mxGeometry>
        </mxCell>
        <mxCell id="hvAa1C0GD8IXJ9aUV1Zo-13" value="" style="endArrow=block;endSize=16;endFill=0;html=1;rounded=0;exitX=1;exitY=1;exitDx=0;exitDy=0;entryX=0;entryY=0;entryDx=0;entryDy=0;" parent="HNm3cFTyr4UYgs1CFmEH-2" source="hvAa1C0GD8IXJ9aUV1Zo-5" target="hvAa1C0GD8IXJ9aUV1Zo-3" edge="1">
          <mxGeometry x="-0.249" y="1" width="160" relative="1" as="geometry">
            <mxPoint x="630" y="540" as="sourcePoint" />
            <mxPoint x="668" y="528" as="targetPoint" />
            <mxPoint as="offset" />
          </mxGeometry>
        </mxCell>
        <mxCell id="hvAa1C0GD8IXJ9aUV1Zo-15" value="Создать бронь" style="ellipse;whiteSpace=wrap;html=1;" parent="HNm3cFTyr4UYgs1CFmEH-2" vertex="1">
          <mxGeometry x="690" y="570" width="120" height="80" as="geometry" />
        </mxCell>
        <mxCell id="hvAa1C0GD8IXJ9aUV1Zo-16" value="Изменить бронь" style="ellipse;whiteSpace=wrap;html=1;" parent="HNm3cFTyr4UYgs1CFmEH-2" vertex="1">
          <mxGeometry x="730" y="680" width="120" height="80" as="geometry" />
        </mxCell>
        <mxCell id="hvAa1C0GD8IXJ9aUV1Zo-17" value="Удалить бронь" style="ellipse;whiteSpace=wrap;html=1;" parent="HNm3cFTyr4UYgs1CFmEH-2" vertex="1">
          <mxGeometry x="540" y="680" width="120" height="80" as="geometry" />
        </mxCell>
        <mxCell id="hvAa1C0GD8IXJ9aUV1Zo-18" value="&amp;lt;extend&amp;gt;" style="html=1;verticalAlign=bottom;endArrow=open;dashed=1;endSize=8;curved=0;rounded=0;entryX=0;entryY=0.5;entryDx=0;entryDy=0;exitX=1;exitY=0.5;exitDx=0;exitDy=0;" parent="HNm3cFTyr4UYgs1CFmEH-2" source="hvAa1C0GD8IXJ9aUV1Zo-17" target="hvAa1C0GD8IXJ9aUV1Zo-16" edge="1">
          <mxGeometry x="-0.1418" y="-8" relative="1" as="geometry">
            <mxPoint x="-30" y="820" as="sourcePoint" />
            <mxPoint x="-88" y="698" as="targetPoint" />
            <mxPoint as="offset" />
          </mxGeometry>
        </mxCell>
        <mxCell id="hvAa1C0GD8IXJ9aUV1Zo-21" value="&amp;lt;include&amp;gt;" style="html=1;verticalAlign=bottom;endArrow=open;dashed=1;endSize=8;curved=0;rounded=0;entryX=0.5;entryY=1;entryDx=0;entryDy=0;exitX=0.5;exitY=0;exitDx=0;exitDy=0;" parent="HNm3cFTyr4UYgs1CFmEH-2" source="HNm3cFTyr4UYgs1CFmEH-12" target="HNm3cFTyr4UYgs1CFmEH-9" edge="1">
          <mxGeometry x="-1" y="30" relative="1" as="geometry">
            <mxPoint x="232" y="112" as="sourcePoint" />
            <mxPoint x="300" y="80" as="targetPoint" />
            <mxPoint as="offset" />
          </mxGeometry>
        </mxCell>
        <mxCell id="hvAa1C0GD8IXJ9aUV1Zo-22" value="&amp;lt;include&amp;gt;" style="html=1;verticalAlign=bottom;endArrow=open;dashed=1;endSize=8;curved=0;rounded=0;entryX=0.5;entryY=0;entryDx=0;entryDy=0;exitX=0.5;exitY=1;exitDx=0;exitDy=0;" parent="HNm3cFTyr4UYgs1CFmEH-2" source="HNm3cFTyr4UYgs1CFmEH-10" target="oBG0XvC71YKFU_uCO4MK-1" edge="1">
          <mxGeometry x="1" y="-30" relative="1" as="geometry">
            <mxPoint x="190" y="200" as="sourcePoint" />
            <mxPoint x="190" y="180" as="targetPoint" />
            <mxPoint as="offset" />
          </mxGeometry>
        </mxCell>
        <mxCell id="HNm3cFTyr4UYgs1CFmEH-1" value="Посетитель" style="shape=umlActor;verticalLabelPosition=bottom;verticalAlign=top;html=1;outlineConnect=0;" parent="1" vertex="1">
          <mxGeometry x="90" y="370" width="30" height="60" as="geometry" />
        </mxCell>
        <mxCell id="HNm3cFTyr4UYgs1CFmEH-4" value="Библиотекарь&lt;div&gt;&lt;br&gt;&lt;/div&gt;" style="shape=umlActor;verticalLabelPosition=bottom;verticalAlign=top;html=1;outlineConnect=0;" parent="1" vertex="1">
          <mxGeometry x="1080" y="370" width="30" height="60" as="geometry" />
        </mxCell>
        <mxCell id="HNm3cFTyr4UYgs1CFmEH-29" value="" style="endArrow=none;html=1;rounded=0;exitX=1;exitY=0.3333333333333333;exitDx=0;exitDy=0;exitPerimeter=0;entryX=0;entryY=0.5;entryDx=0;entryDy=0;" parent="1" source="HNm3cFTyr4UYgs1CFmEH-1" target="HNm3cFTyr4UYgs1CFmEH-9" edge="1">
          <mxGeometry width="50" height="50" relative="1" as="geometry">
            <mxPoint x="123" y="386" as="sourcePoint" />
            <mxPoint x="290" y="160" as="targetPoint" />
          </mxGeometry>
        </mxCell>
        <mxCell id="HNm3cFTyr4UYgs1CFmEH-30" value="" style="endArrow=none;html=1;rounded=0;exitX=1;exitY=0.3333333333333333;exitDx=0;exitDy=0;exitPerimeter=0;entryX=0;entryY=0.5;entryDx=0;entryDy=0;" parent="1" source="HNm3cFTyr4UYgs1CFmEH-1" target="HNm3cFTyr4UYgs1CFmEH-12" edge="1">
          <mxGeometry width="50" height="50" relative="1" as="geometry">
            <mxPoint x="123" y="386" as="sourcePoint" />
            <mxPoint x="290" y="350" as="targetPoint" />
          </mxGeometry>
        </mxCell>
        <mxCell id="HNm3cFTyr4UYgs1CFmEH-31" value="" style="endArrow=none;html=1;rounded=0;entryX=0;entryY=0.5;entryDx=0;entryDy=0;" parent="1" target="HNm3cFTyr4UYgs1CFmEH-10" edge="1">
          <mxGeometry width="50" height="50" relative="1" as="geometry">
            <mxPoint x="120" y="390" as="sourcePoint" />
            <mxPoint x="290" y="450" as="targetPoint" />
          </mxGeometry>
        </mxCell>
        <mxCell id="HNm3cFTyr4UYgs1CFmEH-32" value="" style="endArrow=none;html=1;rounded=0;entryX=0;entryY=0.5;entryDx=0;entryDy=0;exitX=1;exitY=0.3333333333333333;exitDx=0;exitDy=0;exitPerimeter=0;" parent="1" source="HNm3cFTyr4UYgs1CFmEH-1" target="HNm3cFTyr4UYgs1CFmEH-14" edge="1">
          <mxGeometry width="50" height="50" relative="1" as="geometry">
            <mxPoint x="130" y="400" as="sourcePoint" />
            <mxPoint x="290" y="550" as="targetPoint" />
          </mxGeometry>
        </mxCell>
        <mxCell id="HNm3cFTyr4UYgs1CFmEH-33" value="" style="endArrow=none;html=1;rounded=0;entryX=0;entryY=0;entryDx=0;entryDy=0;exitX=1;exitY=0.3333333333333333;exitDx=0;exitDy=0;exitPerimeter=0;" parent="1" source="HNm3cFTyr4UYgs1CFmEH-1" target="HNm3cFTyr4UYgs1CFmEH-25" edge="1">
          <mxGeometry width="50" height="50" relative="1" as="geometry">
            <mxPoint x="130" y="400" as="sourcePoint" />
            <mxPoint x="290" y="660" as="targetPoint" />
          </mxGeometry>
        </mxCell>
        <mxCell id="HNm3cFTyr4UYgs1CFmEH-51" value="" style="endArrow=none;html=1;rounded=0;entryX=0;entryY=0.3333333333333333;entryDx=0;entryDy=0;entryPerimeter=0;exitX=1;exitY=0.5;exitDx=0;exitDy=0;" parent="1" source="oBG0XvC71YKFU_uCO4MK-13" target="HNm3cFTyr4UYgs1CFmEH-4" edge="1">
          <mxGeometry width="50" height="50" relative="1" as="geometry">
            <mxPoint x="892" y="158" as="sourcePoint" />
            <mxPoint x="1090" y="260" as="targetPoint" />
          </mxGeometry>
        </mxCell>
        <mxCell id="HNm3cFTyr4UYgs1CFmEH-54" value="" style="endArrow=none;html=1;rounded=0;exitX=1;exitY=0.5;exitDx=0;exitDy=0;entryX=0;entryY=0.3333333333333333;entryDx=0;entryDy=0;entryPerimeter=0;" parent="1" source="HNm3cFTyr4UYgs1CFmEH-46" target="HNm3cFTyr4UYgs1CFmEH-4" edge="1">
          <mxGeometry width="50" height="50" relative="1" as="geometry">
            <mxPoint x="892" y="322" as="sourcePoint" />
            <mxPoint x="1090" y="260" as="targetPoint" />
          </mxGeometry>
        </mxCell>
        <mxCell id="oBG0XvC71YKFU_uCO4MK-2" value="" style="endArrow=none;html=1;rounded=0;entryX=0;entryY=0.5;entryDx=0;entryDy=0;" parent="1" target="oBG0XvC71YKFU_uCO4MK-1" edge="1">
          <mxGeometry width="50" height="50" relative="1" as="geometry">
            <mxPoint x="120" y="390" as="sourcePoint" />
            <mxPoint x="290" y="370" as="targetPoint" />
          </mxGeometry>
        </mxCell>
        <mxCell id="oBG0XvC71YKFU_uCO4MK-4" value="" style="endArrow=none;html=1;rounded=0;entryX=0;entryY=0.5;entryDx=0;entryDy=0;" parent="1" target="oBG0XvC71YKFU_uCO4MK-3" edge="1">
          <mxGeometry width="50" height="50" relative="1" as="geometry">
            <mxPoint x="120" y="390" as="sourcePoint" />
            <mxPoint x="290" y="470" as="targetPoint" />
          </mxGeometry>
        </mxCell>
        <mxCell id="oBG0XvC71YKFU_uCO4MK-11" value="" style="endArrow=none;html=1;rounded=0;exitX=1;exitY=0.5;exitDx=0;exitDy=0;entryX=0;entryY=0.3333333333333333;entryDx=0;entryDy=0;entryPerimeter=0;" parent="1" source="oBG0XvC71YKFU_uCO4MK-9" target="HNm3cFTyr4UYgs1CFmEH-4" edge="1">
          <mxGeometry width="50" height="50" relative="1" as="geometry">
            <mxPoint x="930" y="490" as="sourcePoint" />
            <mxPoint x="1010" y="350" as="targetPoint" />
          </mxGeometry>
        </mxCell>
        <mxCell id="oBG0XvC71YKFU_uCO4MK-12" value="" style="endArrow=none;html=1;rounded=0;exitX=1;exitY=0;exitDx=0;exitDy=0;entryX=0;entryY=0.3333333333333333;entryDx=0;entryDy=0;entryPerimeter=0;" parent="1" source="hvAa1C0GD8IXJ9aUV1Zo-16" target="HNm3cFTyr4UYgs1CFmEH-4" edge="1">
          <mxGeometry width="50" height="50" relative="1" as="geometry">
            <mxPoint x="1010.0000000000064" y="700" as="sourcePoint" />
            <mxPoint x="1080" y="390" as="targetPoint" />
          </mxGeometry>
        </mxCell>
        <mxCell id="hvAa1C0GD8IXJ9aUV1Zo-2" value="" style="endArrow=none;html=1;rounded=0;entryX=0.5;entryY=0;entryDx=0;entryDy=0;exitX=1;exitY=0.3333333333333333;exitDx=0;exitDy=0;exitPerimeter=0;" parent="1" source="HNm3cFTyr4UYgs1CFmEH-1" target="hvAa1C0GD8IXJ9aUV1Zo-1" edge="1">
          <mxGeometry width="50" height="50" relative="1" as="geometry">
            <mxPoint x="130" y="400" as="sourcePoint" />
            <mxPoint x="308" y="702" as="targetPoint" />
          </mxGeometry>
        </mxCell>
        <mxCell id="hvAa1C0GD8IXJ9aUV1Zo-4" value="" style="endArrow=none;html=1;rounded=0;exitX=1;exitY=0.5;exitDx=0;exitDy=0;entryX=0;entryY=0.3333333333333333;entryDx=0;entryDy=0;entryPerimeter=0;" parent="1" source="hvAa1C0GD8IXJ9aUV1Zo-3" target="HNm3cFTyr4UYgs1CFmEH-4" edge="1">
          <mxGeometry width="50" height="50" relative="1" as="geometry">
            <mxPoint x="1010" y="700" as="sourcePoint" />
            <mxPoint x="1090" y="490" as="targetPoint" />
          </mxGeometry>
        </mxCell>
        <mxCell id="hvAa1C0GD8IXJ9aUV1Zo-11" value="" style="endArrow=block;endSize=16;endFill=0;html=1;rounded=0;" parent="1" edge="1">
          <mxGeometry x="-0.2" y="10" width="160" relative="1" as="geometry">
            <mxPoint x="750" y="510" as="sourcePoint" />
            <mxPoint x="800" y="510" as="targetPoint" />
            <mxPoint as="offset" />
          </mxGeometry>
        </mxCell>
        <mxCell id="hvAa1C0GD8IXJ9aUV1Zo-19" value="" style="endArrow=none;html=1;rounded=0;exitX=1;exitY=0;exitDx=0;exitDy=0;" parent="1" source="hvAa1C0GD8IXJ9aUV1Zo-15" edge="1">
          <mxGeometry width="50" height="50" relative="1" as="geometry">
            <mxPoint x="1002" y="722" as="sourcePoint" />
            <mxPoint x="1080" y="390" as="targetPoint" />
          </mxGeometry>
        </mxCell>
      </root>
    </mxGraphModel>
  </diagram>
</mxfile>
